<mxfile host="app.diagrams.net" modified="2023-05-12T05:02:45.020Z" agent="Mozilla/5.0 (Windows NT 10.0; Win64; x64) AppleWebKit/537.36 (KHTML, like Gecko) Chrome/113.0.0.0 Safari/537.36" etag="kYCq9ysBh_lwL4n9Yui6" version="21.2.9" type="device">
  <diagram id="R2lEEEUBdFMjLlhIrx00" name="Page-1">
    <mxGraphModel dx="1050" dy="549" grid="1" gridSize="10" guides="1" tooltips="1" connect="1" arrows="1" fold="1" page="1" pageScale="1" pageWidth="1100" pageHeight="850" math="0" shadow="0" extFonts="Permanent Marker^https://fonts.googleapis.com/css?family=Permanent+Marker">
      <root>
        <mxCell id="0" />
        <mxCell id="1" parent="0" />
        <mxCell id="48LQLKD0peqqTjezLwJM-13" value="" style="edgeStyle=orthogonalEdgeStyle;rounded=0;orthogonalLoop=1;jettySize=auto;html=1;endArrow=none;endFill=0;" edge="1" parent="1" source="48LQLKD0peqqTjezLwJM-1" target="48LQLKD0peqqTjezLwJM-10">
          <mxGeometry relative="1" as="geometry" />
        </mxCell>
        <mxCell id="48LQLKD0peqqTjezLwJM-24" style="edgeStyle=orthogonalEdgeStyle;rounded=0;orthogonalLoop=1;jettySize=auto;html=1;entryX=1;entryY=0.5;entryDx=0;entryDy=0;endArrow=none;endFill=0;" edge="1" parent="1" source="48LQLKD0peqqTjezLwJM-1" target="48LQLKD0peqqTjezLwJM-8">
          <mxGeometry relative="1" as="geometry" />
        </mxCell>
        <mxCell id="48LQLKD0peqqTjezLwJM-25" style="edgeStyle=orthogonalEdgeStyle;rounded=0;orthogonalLoop=1;jettySize=auto;html=1;entryX=1;entryY=0.5;entryDx=0;entryDy=0;endArrow=none;endFill=0;" edge="1" parent="1" source="48LQLKD0peqqTjezLwJM-1" target="48LQLKD0peqqTjezLwJM-9">
          <mxGeometry relative="1" as="geometry" />
        </mxCell>
        <mxCell id="48LQLKD0peqqTjezLwJM-26" style="edgeStyle=orthogonalEdgeStyle;rounded=0;orthogonalLoop=1;jettySize=auto;html=1;entryX=1;entryY=0.5;entryDx=0;entryDy=0;endArrow=none;endFill=0;" edge="1" parent="1" source="48LQLKD0peqqTjezLwJM-1" target="48LQLKD0peqqTjezLwJM-11">
          <mxGeometry relative="1" as="geometry" />
        </mxCell>
        <mxCell id="48LQLKD0peqqTjezLwJM-27" style="edgeStyle=orthogonalEdgeStyle;rounded=0;orthogonalLoop=1;jettySize=auto;html=1;entryX=1;entryY=0.5;entryDx=0;entryDy=0;endArrow=none;endFill=0;" edge="1" parent="1" source="48LQLKD0peqqTjezLwJM-1" target="48LQLKD0peqqTjezLwJM-12">
          <mxGeometry relative="1" as="geometry" />
        </mxCell>
        <mxCell id="48LQLKD0peqqTjezLwJM-54" value="&amp;nbsp;1&amp;nbsp;" style="edgeStyle=orthogonalEdgeStyle;rounded=0;orthogonalLoop=1;jettySize=auto;html=1;endArrow=none;endFill=0;" edge="1" parent="1" source="48LQLKD0peqqTjezLwJM-1" target="48LQLKD0peqqTjezLwJM-7">
          <mxGeometry relative="1" as="geometry" />
        </mxCell>
        <mxCell id="48LQLKD0peqqTjezLwJM-1" value="usuarios" style="rounded=0;whiteSpace=wrap;html=1;" vertex="1" parent="1">
          <mxGeometry x="190" y="401" width="80" height="40" as="geometry" />
        </mxCell>
        <mxCell id="48LQLKD0peqqTjezLwJM-18" value="" style="edgeStyle=orthogonalEdgeStyle;rounded=0;orthogonalLoop=1;jettySize=auto;html=1;endArrow=none;endFill=0;" edge="1" parent="1" source="48LQLKD0peqqTjezLwJM-2" target="48LQLKD0peqqTjezLwJM-14">
          <mxGeometry relative="1" as="geometry" />
        </mxCell>
        <mxCell id="48LQLKD0peqqTjezLwJM-23" value="" style="edgeStyle=orthogonalEdgeStyle;rounded=0;orthogonalLoop=1;jettySize=auto;html=1;endArrow=none;endFill=0;" edge="1" parent="1" source="48LQLKD0peqqTjezLwJM-2" target="48LQLKD0peqqTjezLwJM-15">
          <mxGeometry relative="1" as="geometry" />
        </mxCell>
        <mxCell id="48LQLKD0peqqTjezLwJM-56" value="&amp;nbsp;1&amp;nbsp;" style="edgeStyle=orthogonalEdgeStyle;rounded=0;orthogonalLoop=1;jettySize=auto;html=1;endArrow=none;endFill=0;" edge="1" parent="1" source="48LQLKD0peqqTjezLwJM-2" target="48LQLKD0peqqTjezLwJM-6">
          <mxGeometry relative="1" as="geometry" />
        </mxCell>
        <mxCell id="48LQLKD0peqqTjezLwJM-2" value="medicamentos" style="rounded=0;whiteSpace=wrap;html=1;" vertex="1" parent="1">
          <mxGeometry x="790" y="401" width="100" height="40" as="geometry" />
        </mxCell>
        <mxCell id="48LQLKD0peqqTjezLwJM-40" style="edgeStyle=orthogonalEdgeStyle;rounded=0;orthogonalLoop=1;jettySize=auto;html=1;endArrow=none;endFill=0;" edge="1" parent="1" source="48LQLKD0peqqTjezLwJM-4" target="48LQLKD0peqqTjezLwJM-28">
          <mxGeometry relative="1" as="geometry">
            <Array as="points">
              <mxPoint x="530" y="350" />
              <mxPoint x="250" y="350" />
              <mxPoint x="250" y="131" />
            </Array>
          </mxGeometry>
        </mxCell>
        <mxCell id="48LQLKD0peqqTjezLwJM-41" style="edgeStyle=orthogonalEdgeStyle;rounded=0;orthogonalLoop=1;jettySize=auto;html=1;entryX=1;entryY=0.5;entryDx=0;entryDy=0;endArrow=none;endFill=0;" edge="1" parent="1" source="48LQLKD0peqqTjezLwJM-4" target="48LQLKD0peqqTjezLwJM-32">
          <mxGeometry relative="1" as="geometry">
            <Array as="points">
              <mxPoint x="530" y="350" />
              <mxPoint x="810" y="350" />
              <mxPoint x="810" y="131" />
            </Array>
          </mxGeometry>
        </mxCell>
        <mxCell id="48LQLKD0peqqTjezLwJM-42" style="edgeStyle=orthogonalEdgeStyle;rounded=0;orthogonalLoop=1;jettySize=auto;html=1;entryX=0.5;entryY=1;entryDx=0;entryDy=0;endArrow=none;endFill=0;" edge="1" parent="1" source="48LQLKD0peqqTjezLwJM-4" target="48LQLKD0peqqTjezLwJM-29">
          <mxGeometry relative="1" as="geometry">
            <Array as="points">
              <mxPoint x="530" y="350" />
              <mxPoint x="250" y="350" />
              <mxPoint x="250" y="170" />
              <mxPoint x="461" y="170" />
            </Array>
          </mxGeometry>
        </mxCell>
        <mxCell id="48LQLKD0peqqTjezLwJM-43" style="edgeStyle=orthogonalEdgeStyle;rounded=0;orthogonalLoop=1;jettySize=auto;html=1;entryX=0.5;entryY=1;entryDx=0;entryDy=0;endArrow=none;endFill=0;" edge="1" parent="1" source="48LQLKD0peqqTjezLwJM-4" target="48LQLKD0peqqTjezLwJM-31">
          <mxGeometry relative="1" as="geometry">
            <Array as="points">
              <mxPoint x="530" y="350" />
              <mxPoint x="810" y="350" />
              <mxPoint x="810" y="170" />
              <mxPoint x="596" y="170" />
            </Array>
          </mxGeometry>
        </mxCell>
        <mxCell id="48LQLKD0peqqTjezLwJM-44" style="edgeStyle=orthogonalEdgeStyle;rounded=0;orthogonalLoop=1;jettySize=auto;html=1;entryX=0.5;entryY=1;entryDx=0;entryDy=0;endArrow=none;endFill=0;" edge="1" parent="1" source="48LQLKD0peqqTjezLwJM-4" target="48LQLKD0peqqTjezLwJM-33">
          <mxGeometry relative="1" as="geometry">
            <Array as="points">
              <mxPoint x="530" y="350" />
              <mxPoint x="250" y="350" />
              <mxPoint x="250" y="260" />
              <mxPoint x="331" y="260" />
            </Array>
          </mxGeometry>
        </mxCell>
        <mxCell id="48LQLKD0peqqTjezLwJM-47" style="edgeStyle=orthogonalEdgeStyle;rounded=0;orthogonalLoop=1;jettySize=auto;html=1;entryX=0.5;entryY=1;entryDx=0;entryDy=0;endArrow=none;endFill=0;" edge="1" parent="1" source="48LQLKD0peqqTjezLwJM-4" target="48LQLKD0peqqTjezLwJM-34">
          <mxGeometry relative="1" as="geometry">
            <Array as="points">
              <mxPoint x="530" y="350" />
              <mxPoint x="250" y="350" />
              <mxPoint x="250" y="260" />
              <mxPoint x="464" y="260" />
            </Array>
          </mxGeometry>
        </mxCell>
        <mxCell id="48LQLKD0peqqTjezLwJM-49" style="edgeStyle=orthogonalEdgeStyle;rounded=0;orthogonalLoop=1;jettySize=auto;html=1;entryX=0.5;entryY=1;entryDx=0;entryDy=0;endArrow=none;endFill=0;" edge="1" parent="1" source="48LQLKD0peqqTjezLwJM-4" target="48LQLKD0peqqTjezLwJM-36">
          <mxGeometry relative="1" as="geometry">
            <Array as="points">
              <mxPoint x="530" y="350" />
              <mxPoint x="810" y="350" />
              <mxPoint x="810" y="260" />
              <mxPoint x="729" y="260" />
            </Array>
          </mxGeometry>
        </mxCell>
        <mxCell id="48LQLKD0peqqTjezLwJM-50" style="edgeStyle=orthogonalEdgeStyle;rounded=0;orthogonalLoop=1;jettySize=auto;html=1;entryX=0.5;entryY=1;entryDx=0;entryDy=0;endArrow=none;endFill=0;" edge="1" parent="1" source="48LQLKD0peqqTjezLwJM-4" target="48LQLKD0peqqTjezLwJM-35">
          <mxGeometry relative="1" as="geometry">
            <Array as="points">
              <mxPoint x="530" y="350" />
              <mxPoint x="810" y="350" />
              <mxPoint x="810" y="260" />
              <mxPoint x="596" y="260" />
            </Array>
          </mxGeometry>
        </mxCell>
        <mxCell id="48LQLKD0peqqTjezLwJM-51" style="edgeStyle=orthogonalEdgeStyle;rounded=0;orthogonalLoop=1;jettySize=auto;html=1;entryX=0.5;entryY=1;entryDx=0;entryDy=0;endArrow=none;endFill=0;" edge="1" parent="1" source="48LQLKD0peqqTjezLwJM-4" target="48LQLKD0peqqTjezLwJM-37">
          <mxGeometry relative="1" as="geometry">
            <Array as="points">
              <mxPoint x="530" y="350" />
              <mxPoint x="394" y="350" />
            </Array>
          </mxGeometry>
        </mxCell>
        <mxCell id="48LQLKD0peqqTjezLwJM-52" style="edgeStyle=orthogonalEdgeStyle;rounded=0;orthogonalLoop=1;jettySize=auto;html=1;entryX=0.5;entryY=1;entryDx=0;entryDy=0;endArrow=none;endFill=0;" edge="1" parent="1" source="48LQLKD0peqqTjezLwJM-4" target="48LQLKD0peqqTjezLwJM-38">
          <mxGeometry relative="1" as="geometry" />
        </mxCell>
        <mxCell id="48LQLKD0peqqTjezLwJM-53" style="edgeStyle=orthogonalEdgeStyle;rounded=0;orthogonalLoop=1;jettySize=auto;html=1;entryX=0.5;entryY=1;entryDx=0;entryDy=0;endArrow=none;endFill=0;" edge="1" parent="1" source="48LQLKD0peqqTjezLwJM-4" target="48LQLKD0peqqTjezLwJM-39">
          <mxGeometry relative="1" as="geometry">
            <Array as="points">
              <mxPoint x="530" y="350" />
              <mxPoint x="669" y="350" />
            </Array>
          </mxGeometry>
        </mxCell>
        <mxCell id="48LQLKD0peqqTjezLwJM-4" value="tratamientos" style="rounded=0;whiteSpace=wrap;html=1;" vertex="1" parent="1">
          <mxGeometry x="470" y="400" width="120" height="40" as="geometry" />
        </mxCell>
        <mxCell id="48LQLKD0peqqTjezLwJM-57" value="&amp;nbsp;N&amp;nbsp;" style="edgeStyle=orthogonalEdgeStyle;rounded=0;orthogonalLoop=1;jettySize=auto;html=1;" edge="1" parent="1" source="48LQLKD0peqqTjezLwJM-6" target="48LQLKD0peqqTjezLwJM-4">
          <mxGeometry relative="1" as="geometry" />
        </mxCell>
        <mxCell id="48LQLKD0peqqTjezLwJM-6" value="ser utilizado" style="rhombus;whiteSpace=wrap;html=1;" vertex="1" parent="1">
          <mxGeometry x="650" y="383" width="80" height="75" as="geometry" />
        </mxCell>
        <mxCell id="48LQLKD0peqqTjezLwJM-55" value="&amp;nbsp;N&amp;nbsp;" style="edgeStyle=orthogonalEdgeStyle;rounded=0;orthogonalLoop=1;jettySize=auto;html=1;" edge="1" parent="1" source="48LQLKD0peqqTjezLwJM-7" target="48LQLKD0peqqTjezLwJM-4">
          <mxGeometry relative="1" as="geometry" />
        </mxCell>
        <mxCell id="48LQLKD0peqqTjezLwJM-7" value="tiene" style="rhombus;whiteSpace=wrap;html=1;" vertex="1" parent="1">
          <mxGeometry x="330" y="383" width="80" height="75" as="geometry" />
        </mxCell>
        <mxCell id="48LQLKD0peqqTjezLwJM-8" value="&lt;u&gt;&lt;b&gt;idusuario&lt;/b&gt;&lt;/u&gt;" style="ellipse;whiteSpace=wrap;html=1;" vertex="1" parent="1">
          <mxGeometry x="20" y="278" width="110" height="40" as="geometry" />
        </mxCell>
        <mxCell id="48LQLKD0peqqTjezLwJM-9" value="nombre" style="ellipse;whiteSpace=wrap;html=1;" vertex="1" parent="1">
          <mxGeometry x="20" y="338" width="110" height="40" as="geometry" />
        </mxCell>
        <mxCell id="48LQLKD0peqqTjezLwJM-10" value="email" style="ellipse;whiteSpace=wrap;html=1;" vertex="1" parent="1">
          <mxGeometry x="20" y="401" width="110" height="40" as="geometry" />
        </mxCell>
        <mxCell id="48LQLKD0peqqTjezLwJM-11" value="password" style="ellipse;whiteSpace=wrap;html=1;" vertex="1" parent="1">
          <mxGeometry x="20" y="468" width="110" height="40" as="geometry" />
        </mxCell>
        <mxCell id="48LQLKD0peqqTjezLwJM-12" value="admin" style="ellipse;whiteSpace=wrap;html=1;" vertex="1" parent="1">
          <mxGeometry x="20" y="541" width="110" height="40" as="geometry" />
        </mxCell>
        <mxCell id="48LQLKD0peqqTjezLwJM-14" value="&lt;u&gt;&lt;b&gt;idmedicamento&lt;/b&gt;&lt;/u&gt;" style="ellipse;whiteSpace=wrap;html=1;" vertex="1" parent="1">
          <mxGeometry x="950" y="371" width="110" height="40" as="geometry" />
        </mxCell>
        <mxCell id="48LQLKD0peqqTjezLwJM-15" value="medicamento" style="ellipse;whiteSpace=wrap;html=1;" vertex="1" parent="1">
          <mxGeometry x="950" y="441" width="110" height="40" as="geometry" />
        </mxCell>
        <mxCell id="48LQLKD0peqqTjezLwJM-28" value="&lt;u&gt;&lt;b&gt;idtratamiento&lt;/b&gt;&lt;/u&gt;" style="ellipse;whiteSpace=wrap;html=1;" vertex="1" parent="1">
          <mxGeometry x="277.25" y="111.5" width="110" height="40" as="geometry" />
        </mxCell>
        <mxCell id="48LQLKD0peqqTjezLwJM-29" value="fidusuario" style="ellipse;whiteSpace=wrap;html=1;" vertex="1" parent="1">
          <mxGeometry x="407.25" y="111.5" width="110" height="40" as="geometry" />
        </mxCell>
        <mxCell id="48LQLKD0peqqTjezLwJM-31" value="fidmedicamento" style="ellipse;whiteSpace=wrap;html=1;" vertex="1" parent="1">
          <mxGeometry x="542.25" y="111.5" width="110" height="40" as="geometry" />
        </mxCell>
        <mxCell id="48LQLKD0peqqTjezLwJM-32" value="paciente" style="ellipse;whiteSpace=wrap;html=1;" vertex="1" parent="1">
          <mxGeometry x="672.25" y="111.5" width="110" height="40" as="geometry" />
        </mxCell>
        <mxCell id="48LQLKD0peqqTjezLwJM-33" value="dosis" style="ellipse;whiteSpace=wrap;html=1;" vertex="1" parent="1">
          <mxGeometry x="277.25" y="191.5" width="110" height="40" as="geometry" />
        </mxCell>
        <mxCell id="48LQLKD0peqqTjezLwJM-34" value="horas" style="ellipse;whiteSpace=wrap;html=1;" vertex="1" parent="1">
          <mxGeometry x="409.75" y="191.5" width="110" height="40" as="geometry" />
        </mxCell>
        <mxCell id="48LQLKD0peqqTjezLwJM-35" value="duracion" style="ellipse;whiteSpace=wrap;html=1;" vertex="1" parent="1">
          <mxGeometry x="542.25" y="191.5" width="110" height="40" as="geometry" />
        </mxCell>
        <mxCell id="48LQLKD0peqqTjezLwJM-36" value="inicio" style="ellipse;whiteSpace=wrap;html=1;" vertex="1" parent="1">
          <mxGeometry x="674.75" y="191.5" width="110" height="40" as="geometry" />
        </mxCell>
        <mxCell id="48LQLKD0peqqTjezLwJM-37" value="tratamiento" style="ellipse;whiteSpace=wrap;html=1;" vertex="1" parent="1">
          <mxGeometry x="339.75" y="277" width="110" height="40" as="geometry" />
        </mxCell>
        <mxCell id="48LQLKD0peqqTjezLwJM-38" value="observaciones" style="ellipse;whiteSpace=wrap;html=1;" vertex="1" parent="1">
          <mxGeometry x="474.75" y="277" width="110" height="40" as="geometry" />
        </mxCell>
        <mxCell id="48LQLKD0peqqTjezLwJM-39" value="activo" style="ellipse;whiteSpace=wrap;html=1;" vertex="1" parent="1">
          <mxGeometry x="614.75" y="277" width="110" height="40" as="geometry" />
        </mxCell>
      </root>
    </mxGraphModel>
  </diagram>
</mxfile>
